<?xml version="1.0" encoding="UTF-8" standalone="no"?>
<!-- Created with Inkscape (http://www.inkscape.org/) -->

<svg
   xmlns:osb="http://www.openswatchbook.org/uri/2009/osb"
   xmlns:dc="http://purl.org/dc/elements/1.1/"
   xmlns:cc="http://creativecommons.org/ns#"
   xmlns:rdf="http://www.w3.org/1999/02/22-rdf-syntax-ns#"
   xmlns:svg="http://www.w3.org/2000/svg"
   xmlns="http://www.w3.org/2000/svg"
   xmlns:sodipodi="http://sodipodi.sourceforge.net/DTD/sodipodi-0.dtd"
   xmlns:inkscape="http://www.inkscape.org/namespaces/inkscape"
   width="53.31628mm"
   height="41.05735mm"
   viewBox="0 0 53.31628 41.057351"
   version="1.1"
   id="svg8"
   inkscape:version="0.92.4 (5da689c313, 2019-01-14)"
   sodipodi:docname="harfa.svg">
  <title
     id="title33">Harfa logo</title>
  <defs
     id="defs2">
    <linearGradient
       id="linearGradient4559"
       osb:paint="solid">
      <stop
         style="stop-color:#fffff7;stop-opacity:0.82914573;"
         offset="0"
         id="stop4557" />
    </linearGradient>
  </defs>
  <sodipodi:namedview
     id="base"
     pagecolor="#182626"
     bordercolor="#666666"
     borderopacity="1.0"
     inkscape:pageopacity="0"
     inkscape:pageshadow="2"
     inkscape:zoom="1"
     inkscape:cx="123.86762"
     inkscape:cy="49.24"
     inkscape:document-units="mm"
     inkscape:current-layer="text12"
     showgrid="false"
     inkscape:window-width="1920"
     inkscape:window-height="1017"
     inkscape:window-x="-8"
     inkscape:window-y="-8"
     inkscape:window-maximized="1"
     inkscape:pagecheckerboard="false"
     fit-margin-top="0"
     fit-margin-left="0"
     fit-margin-right="0"
     fit-margin-bottom="0" />
  <metadata
     id="metadata5">
    <rdf:RDF>
      <cc:Work
         rdf:about="">
        <dc:format>image/svg+xml</dc:format>
        <dc:type
           rdf:resource="http://purl.org/dc/dcmitype/StillImage" />
        <dc:title>Harfa logo</dc:title>
      </cc:Work>
    </rdf:RDF>
  </metadata>
  <g
     inkscape:label="Layer 1"
     inkscape:groupmode="layer"
     id="layer1"
     transform="translate(8.4936053,-56.80821)">
    <g
       aria-label="Harfa"
       style="font-style:normal;font-weight:normal;font-size:10.58333302px;line-height:1.25;font-family:sans-serif;letter-spacing:0px;word-spacing:0px;fill:#000000;fill-opacity:1;stroke:none;stroke-width:0.26458332"
       id="text12"
       transform="matrix(2.58267,0,0,4.0510848,-23.053605,-261.97993)">
      <path
         d="m 8.1219526,87.073537 q -0.1058333,0.05292 -0.1375833,0.04233 -0.021167,-0.01058 -0.052917,-0.08467 -0.010583,-0.02117 -0.042333,-0.05292 -0.021167,-0.03175 -0.042333,-0.05292 0.021167,-0.03175 0.03175,-0.05292 0.021167,-0.02117 0.03175,-0.04233 0.010583,-0.07408 0,-0.148167 0,-0.07408 0.010583,-0.148166 V 86.41737 q 0.074083,-0.201083 0.03175,-0.402167 0,-0.02117 0.010583,-0.05292 0.021167,-0.03175 0.021167,-0.0635 0.03175,-0.05292 0.021167,-0.07408 -0.042333,-0.05292 0.042333,-0.169333 0.021167,-0.04233 0.021167,-0.07408 0.010583,-0.04233 0.03175,-0.08467 0.052917,-0.179917 0.074083,-0.34925 0.03175,-0.169333 0.084667,-0.338666 -0.021167,-0.09525 0.021167,-0.264584 0.042333,-0.179916 0.1058333,-0.370416 0.0635,-0.1905 0.127,-0.381 0.0635,-0.1905 0.074083,-0.328084 0.010583,-0.148166 -0.052917,-0.211666 -0.0635,-0.07408 -0.254,-0.02117 -0.052917,0.04233 -0.15875,0.0635 -0.28575,0.137583 -0.4445,0.211667 -0.1481666,0.07408 -0.2328333,0.169333 -0.074083,0.09525 -0.127,0.243417 -0.042333,0.148166 -0.1164167,0.423333 -0.010583,0.08467 -0.021167,0.15875 -0.010583,0.0635 -0.03175,0.148167 -0.010583,0.03175 -0.010583,0.0635 0.010583,0.03175 -0.010583,0.07408 -0.09525,0.264583 -0.1481667,0.529166 -0.052917,0.254 -0.2116666,0.529167 -0.010583,0.01058 -0.03175,0.04233 -0.074083,0.09525 -0.1164167,0.148167 -0.042333,0.04233 -0.084667,0.0635 -0.03175,0.02117 -0.084667,0.02117 -0.052917,0 -0.1481667,0 -0.03175,0 -0.0635,-0.01058 -0.03175,-0.01058 -0.052917,0.01058 -0.084667,0.02117 -0.1375834,-0.02117 -0.042333,-0.04233 -0.052917,-0.09525 -0.021167,-0.169333 0.010583,-0.328083 0.074083,-0.370417 0.1693333,-0.740833 0.09525,-0.381 0.2116667,-0.751417 0.074083,-0.179917 0.03175,-0.232833 -0.03175,-0.0635 -0.1058333,-0.08467 -0.0635,-0.02117 -0.1481667,-0.0635 -0.074083,-0.04233 -0.084667,-0.1905 -0.010583,-0.05292 -0.021167,-0.09525 -0.010583,-0.05292 0.010583,-0.105833 0.021167,-0.09525 0.03175,-0.179917 0.010583,-0.09525 0.03175,-0.179917 0.03175,-0.137583 -0.010583,-0.179916 l 0.2116666,-0.4445 q 0.1164167,0.05292 0.2328334,0.02117 0.127,-0.04233 0.28575,-0.0635 0.1058333,-0.02117 0.1904999,-0.137583 0.084667,-0.116417 0.1058334,-0.211667 0.042333,-0.169333 0.09525,-0.296333 0.052917,-0.137583 0.1058333,-0.264583 0.0635,-0.137584 0.127,-0.264584 0.0635,-0.137583 0.1375833,-0.306916 0.09525,-0.211667 0.22225,-0.433917 0.127,-0.22225 0.2434167,-0.4445 0.052917,-0.105833 0.1693333,-0.08467 l 0.2328333,0.03175 q 0.1375834,0.04233 0.084667,0.1905 -0.052917,0.127 -0.1058333,0.243417 -0.052917,0.105833 -0.084667,0.22225 l -0.1905,0.47625 q -0.2328333,0.370417 -0.2434166,0.560917 -0.010583,0.1905 0.1269999,0.243416 0.1481667,0.05292 0.4021667,0 0.254,-0.05292 0.5503333,-0.169333 0.021167,-0.04233 0.03175,-0.0635 0.021167,-0.02117 0.03175,-0.05292 0.074083,-0.232833 0.1375833,-0.391583 0.074083,-0.169333 0.1693334,-0.41275 0.021167,-0.0635 0.052917,-0.137583 0.03175,-0.07408 0.03175,-0.137584 0,-0.105833 0.052917,-0.1905 0.052917,-0.09525 0.1058333,-0.1905 0.074083,-0.137583 0.084667,-0.275166 0,-0.05292 0.03175,-0.127 0.03175,-0.07408 0.052917,-0.137584 0.084667,-0.148166 0.15875,-0.28575 0.084666,-0.148166 0.1693333,-0.296333 h 0.433917 q 0.328083,0 0.592666,0.148167 0.254,0.137583 0.201084,0.41275 -0.04233,0.09525 -0.0635,0.1905 -0.02117,0.09525 -0.08467,0.179916 -0.15875,0.306917 -0.275167,0.613834 -0.116416,0.296333 -0.22225,0.60325 -0.0635,0.179916 -0.01058,0.254 0.05292,0.0635 0.15875,0.07408 0.116417,0 0.254,-0.03175 0.137583,-0.03175 0.243417,-0.05292 0.04233,-0.01058 0.07408,-0.01058 0.04233,0 0.0635,0.05292 -0.148167,0.02117 -0.306917,0.0635 -0.15875,0.03175 -0.296333,0.0635 -0.08467,0.02117 -0.148167,0.04233 -0.05292,0.02117 -0.116416,0.05292 -0.148167,0.08467 -0.201084,0.296333 0.04233,0 0.09525,0.01058 0.05292,0 0.105834,0 0.0635,0 0.116416,-0.03175 0.09525,-0.01058 0.1905,-0.02117 0.09525,-0.02117 0.1905,0 0.04233,0.01058 0.116417,0.01058 0.07408,-0.01058 0.127,-0.03175 0.0635,-0.01058 0.116417,-0.01058 0.0635,0 0.137583,0 -0.02117,-0.04233 -0.04233,-0.07408 -0.02117,-0.03175 -0.04233,-0.07408 -0.01058,-0.04233 0,-0.08467 0.02117,-0.05292 0.04233,-0.116416 h 0.07408 l 0.02117,-0.02117 q -0.02117,-0.03175 -0.05292,-0.0635 -0.03175,-0.03175 -0.05292,-0.0635 0.105834,0.04233 0.179917,0.116417 0.08467,0.0635 0.116417,0.169333 -0.04233,0.02117 -0.07408,0.02117 -0.05292,0.127 0.01058,0.148166 0.07408,0.02117 0.179916,0.02117 -0.116416,0.08467 -0.201083,0.0635 -0.07408,-0.02117 -0.15875,-0.01058 l 0.179917,0.116416 q -0.05292,0.02117 -0.116417,0.03175 -0.05292,0.01058 -0.08467,0.09525 l 0.201084,0.02117 q -0.05292,0.02117 -0.09525,0.04233 -0.04233,0.01058 -0.07408,0.02117 -0.03175,0.01058 -0.07408,0.02117 -0.03175,0.01058 -0.0635,0.0635 0.03175,0 0.0635,0.01058 0.03175,0.01058 0.07408,0.02117 -0.1905,0.05292 -0.381,0.116416 -0.1905,0.05292 -0.381,0.137584 -0.127,0.04233 -0.264583,0.08467 -0.137583,0.03175 -0.275167,0.08467 -0.211666,0.0635 -0.275166,0.264583 -0.0635,0.148167 -0.09525,0.28575 -0.03175,0.137584 -0.052917,0.28575 -0.021167,0.105834 -0.042333,0.211667 -0.021167,0.09525 -0.0635,0.201083 -0.052917,0.179917 -0.074083,0.34925 -0.021167,0.169334 -0.074083,0.338667 -0.03175,0.15875 -0.0635,0.3175 -0.03175,0.15875 -0.084667,0.3175 0,0.02117 -0.021167,0.04233 -0.010583,0.01058 -0.03175,0.03175 0,0.02117 -0.010583,0.04233 -0.010583,0.01058 0,0.02117 0.052917,0.116417 0.010583,0.243417 -0.03175,0.127 -0.0635,0.243416 0,0.02117 -0.010583,0.04233 0,0.02117 0,0.04233 0.021167,0.116417 -0.021167,0.211667 -0.042333,0.105833 -0.084667,0.211666 -0.010583,0.05292 -0.0635,0.09525 -0.052917,0.05292 -0.1058333,0.105834 -0.074083,0 -0.1375833,0.02117 -0.0635,0 -0.084667,0.01058 -0.1058333,0.09525 -0.22225,0.105833 -0.1058333,0.02117 -0.2116667,0.116417 -0.042333,0.02117 -0.042333,-0.01058 0,-0.03175 -0.03175,-0.01058 -0.0635,0.0635 -0.0635,0.0635 -0.03175,0 -0.052917,-0.01058 -0.021167,-0.01058 -0.052917,-0.02117 z m -1.0900833,-4.6355 q -0.084667,0.02117 -0.1481666,0.03175 -0.0635,0.01058 -0.1481667,0.02117 -0.09525,0.02117 -0.1375833,0.0635 -0.03175,0.04233 -0.074083,0.148166 0.042333,0 0.084667,0.01058 0.042333,0.01058 0.09525,0.01058 0.052917,0.01058 0.0635,0.03175 0.010583,0.02117 0.03175,0.0635 -0.074083,0.03175 -0.1481667,0.05292 -0.0635,0.01058 -0.127,0.09525 0.1799167,-0.03175 0.3280834,-0.07408 z m 1.8309166,-0.02117 -0.052917,-0.05292 q -0.084667,-0.01058 -0.1693334,0.01058 -0.084667,0.02117 -0.1905,0.05292 -0.127,0.05292 -0.2328333,0.05292 -0.1164167,0 -0.2010833,0.07408 0.3915833,-0.01058 0.8466666,-0.137584 z M 7.9843693,82.19462 q -0.1164167,0.02117 -0.1164167,0.09525 0.0635,0 0.0635,0 l 0.4445,-0.201083 q -0.09525,0.03175 -0.2010833,0.05292 -0.09525,0.02117 -0.1905,0.05292 z m 0.5503333,0.391584 q 0.084667,-0.02117 0.1375833,-0.01058 0.0635,0.01058 0.127,-0.04233 -0.052917,-0.01058 -0.1164166,-0.02117 -0.052917,-0.01058 -0.1481667,0.07408 z m -0.60325,-0.116417 q 0.1164167,0.04233 0.1905,-0.0635 -0.09525,0.02117 -0.1905,0.0635 z M 8.6087859,82.06762 q 0,-0.01058 0.010583,-0.02117 0.010583,-0.01058 0.010583,-0.02117 -0.052917,0.01058 -0.1058333,0.02117 -0.042333,0.01058 -0.09525,0.03175 0.052917,-0.01058 0.084667,-0.01058 0.042333,0 0.09525,0 z M 11.879036,81.71837 V 81.6972 l -0.01058,0.01058 z"
         style="font-style:normal;font-variant:normal;font-weight:normal;font-stretch:normal;font-size:10.58333302px;font-family:Selima;-inkscape-font-specification:'Selima, Normal';font-variant-ligatures:normal;font-variant-caps:normal;font-variant-numeric:normal;font-feature-settings:normal;text-align:start;writing-mode:lr-tb;text-anchor:start;stroke:#fcffff;stroke-width:0.69745946;stroke-linejoin:round;stroke-miterlimit:4;stroke-dasharray:none;stroke-opacity:0.71356788;paint-order:markers stroke fill"
         id="path22"
         inkscape:connector-curvature="0" />
      <path
         d="m 15.16946,83.602204 q 0.08467,0.01058 0.179917,0.105833 -0.01058,0.05292 -0.07408,0.201083 -0.05292,0.137584 -0.09525,0.169334 -0.02117,0.01058 -0.03175,0.03175 -0.01058,0.01058 -0.03175,0.02117 l -0.116417,0.137584 q -0.02117,0.02117 -0.04233,0.04233 -0.01058,0.01058 -0.02117,0.03175 -0.03175,0.07408 -0.127,0.127 -0.04233,0.02117 -0.05292,0.04233 -0.05292,0.05292 -0.105833,0.105834 -0.05292,0.04233 -0.105833,0.09525 -0.08467,0.07408 -0.201084,0.105833 -0.07408,0.02117 -0.137583,0.03175 -0.0635,0 -0.127,0.02117 -0.05292,0.02117 -0.116417,0.03175 -0.0635,0 -0.127,0.02117 h -0.09525 q -0.09525,-0.03175 -0.1905,-0.05292 -0.08467,-0.03175 -0.169333,-0.09525 l -0.05292,-0.03175 q -0.07408,-0.03175 -0.137583,-0.07408 -0.0635,-0.04233 -0.116417,-0.105833 -0.148166,0.07408 -0.22225,0.137583 l -0.116416,0.07408 q -0.02117,0.01058 -0.02117,0.01058 -0.05292,0.0635 -0.116417,0.08467 -0.05292,0.02117 -0.116416,0.04233 -0.243417,0.07408 -0.433917,-0.03175 -0.04233,-0.02117 -0.08467,-0.03175 -0.03175,-0.02117 -0.07408,-0.04233 -0.455083,-0.1905 -0.508,-0.687917 -0.03175,-0.243417 0.08467,-0.47625 0.05292,-0.105833 0.105833,-0.201083 0.0635,-0.105834 0.148167,-0.1905 0,-0.01058 0.02117,-0.03175 0.105834,-0.15875 0.22225,-0.306917 0.127,-0.148167 0.243417,-0.296333 0.179917,-0.1905 0.402167,-0.328084 0.04233,-0.02117 0.09525,-0.02117 0.05292,-0.01058 0.09525,-0.01058 0.05292,-0.01058 0.105833,-0.01058 h 0.03175 q 0.05292,0.02117 0.105833,0.03175 0.0635,0 0.116417,0.02117 0.04233,0.02117 0.0635,0.02117 0.04233,0.01058 0.0635,0.02117 0.03175,0 0.05292,0.03175 0.02117,0.01058 0.02117,0.01058 0.04233,0 0.07408,0.03175 0.03175,0.02117 0.07408,0.02117 0.03175,0 0.05292,0.02117 0.05292,0.05292 0.09525,0.09525 0.05292,0.04233 0.08467,0.09525 l 0.03175,0.08467 q 0.03175,0.137584 -0.09525,0.211667 -0.07408,0.03175 -0.137583,0.07408 -0.0635,0.04233 -0.127,0.09525 v 0.01058 q -0.08467,0.08467 -0.179917,0.169333 -0.09525,0.08467 -0.169333,0.1905 l -0.127,0.137583 q -0.07408,0.08467 -0.137583,0.169334 -0.05292,0.08467 -0.116417,0.169333 l -0.105833,0.148167 q -0.02117,0.02117 -0.04233,0.0635 -0.09525,0.179916 -0.127,0.34925 0,0 0,0.04233 l 0.04233,-0.03175 q 0.179916,-0.179917 0.34925,-0.306917 0.105833,-0.08467 0.15875,-0.179916 l 0.08467,-0.09525 q 0.05292,-0.05292 0.09525,-0.105834 0.04233,-0.0635 0.08467,-0.127 l 0.22225,-0.359833 q 0.15875,-0.02117 0.232833,0.07408 l 0.0635,0.0635 q 0.05292,0.07408 0.0635,0.148167 0.02117,0.07408 0.03175,0.15875 0,0.01058 -0.02117,0.05292 l -0.148167,0.296333 q -0.05292,0.116417 -0.03175,0.22225 0.03175,0.148167 0.09525,0.264583 0.03175,0.05292 0.09525,0.05292 0.05292,-0.01058 0.105833,-0.02117 0.0635,-0.01058 0.116417,-0.03175 0.05292,-0.02117 0.09525,-0.04233 0.05292,-0.03175 0.105833,-0.0635 l 0.232834,-0.137583 0.169333,-0.148167 q 0.105833,-0.105833 0.243417,-0.306917 0.137583,-0.211666 0.243416,-0.3175 z"
         style="font-style:normal;font-variant:normal;font-weight:normal;font-stretch:normal;font-size:10.58333302px;font-family:Selima;-inkscape-font-specification:'Selima, Normal';font-variant-ligatures:normal;font-variant-caps:normal;font-variant-numeric:normal;font-feature-settings:normal;text-align:start;writing-mode:lr-tb;text-anchor:start;stroke:#fcffff;stroke-width:0.69745946;stroke-linejoin:round;stroke-miterlimit:4;stroke-dasharray:none;stroke-opacity:0.71356788;paint-order:markers stroke fill"
         id="path24"
         inkscape:connector-curvature="0" />
      <path
         d="m 15.980738,84.184287 q -0.0635,0.1905 -0.02117,0.211667 0.05292,0.02117 0.127,-0.04233 0.08467,-0.0635 0.15875,-0.169333 0.08467,-0.105833 0.105833,-0.169333 0.01058,-0.0635 0.07408,-0.211667 0.07408,-0.148167 0.148167,-0.3175 0.08467,-0.169333 0.15875,-0.306917 0.07408,-0.148166 0.105833,-0.201083 0.05292,-0.07408 0.09525,-0.137583 0.04233,-0.07408 0.08467,-0.15875 0.105833,-0.148167 0.169333,-0.264584 0.0635,-0.105833 0.169334,-0.127 0.05292,0 0.09525,0 0.05292,-0.01058 0.105833,-0.01058 0.09525,0 0.148167,0.0635 0.0635,0.0635 0.116416,0.169333 v 0.04233 l 0.07408,0.433916 q 0.02117,0.105834 0.01058,0.211667 0,0.105833 0,0.211667 0,0.07408 0,0.148166 0.01058,0.0635 0,0.137584 0.04233,0.02117 0.04233,0.05292 0,0.02117 0.01058,0.01058 0.02117,-0.02117 0.05292,0 0.04233,0.01058 0.0635,-0.01058 l 0.04233,-0.05292 q 0.03175,-0.02117 0.0635,-0.04233 0.03175,-0.03175 0.0635,-0.07408 0.04233,-0.07408 0.105833,0 0,0.05292 -0.04233,0.08467 l -0.03175,0.05292 q -0.02117,0.0635 -0.0635,0.07408 l -0.03175,0.03175 q -0.03175,0.03175 -0.03175,0.03175 l -0.03175,0.02117 q -0.05292,0.05292 -0.116417,0.05292 -0.04233,0 -0.09525,0.04233 -0.05292,0.03175 -0.08467,0 -0.05292,-0.03175 -0.116416,-0.04233 -0.05292,-0.02117 -0.105834,-0.04233 -0.09525,-0.02117 -0.169333,-0.09525 -0.0635,-0.08467 -0.105833,-0.201084 -0.05292,-0.148166 -0.05292,-0.296333 0,-0.15875 0.02117,-0.306917 0.02117,-0.07408 0.02117,-0.137583 0,-0.0635 0.01058,-0.127 l 0.03175,-0.1905 q 0.02117,-0.05292 0.01058,-0.116417 -0.03175,0 -0.03175,0.01058 l -0.04233,0.05292 -0.148167,0.264584 q -0.05292,0.08467 -0.0635,0.1905 0.01058,0.03175 -0.01058,0.0635 -0.01058,0.02117 -0.02117,0.04233 -0.07408,0.137583 -0.137583,0.275167 -0.05292,0.127 -0.105834,0.275166 -0.04233,0.116417 -0.09525,0.211667 -0.04233,0.09525 -0.09525,0.211667 -0.07408,0.169333 -0.15875,0.328083 -0.07408,0.148167 -0.127,0.328083 -0.02117,0.05292 -0.05292,0.116417 -0.02117,0.0635 -0.04233,0.127 -0.01058,0.02117 -0.0635,0.116417 -0.04233,0.09525 -0.09525,0.201083 -0.05292,0.105833 -0.116416,0.201083 -0.05292,0.08467 -0.07408,0.105833 0,0.02117 -0.02117,0.03175 -0.01058,0 -0.03175,0.02117 -0.09525,0.137583 -0.211667,0.148167 -0.105833,0.01058 -0.232833,-0.02117 -0.02117,0.02117 -0.0635,-0.02117 -0.127,-0.03175 -0.201084,-0.137583 -0.0635,-0.116417 -0.09525,-0.275167 -0.02117,-0.137583 -0.02117,-0.275166 -0.01058,-0.137583 -0.01058,-0.275167 0.01058,-0.211666 0.02117,-0.41275 0,-0.201083 0.02117,-0.41275 0.02117,-0.116416 0.02117,-0.179916 0.01058,-0.0635 0.01058,-0.116417 0.01058,-0.05292 0.02117,-0.105833 0.01058,-0.0635 0.04233,-0.169334 0.03175,-0.15875 0.04233,-0.232833 0.01058,-0.08467 0.02117,-0.148167 0.01058,-0.0635 0.03175,-0.137583 0.03175,-0.08467 0.08467,-0.243417 0.01058,-0.05292 0.03175,-0.09525 0.02117,-0.05292 0.04233,-0.105833 0.05292,-0.148167 0.105833,-0.275167 0.05292,-0.127 0.116417,-0.254 0.03175,-0.105833 0.0635,-0.127 0.04233,-0.03175 0.127,-0.01058 0.05292,0 0.116416,0.01058 0.07408,0.01058 0.148167,0.03175 0.05292,0.01058 0.09525,0.03175 0.05292,0.02117 0.116417,0.07408 0.05292,0.105833 0.127,0.1905 0.07408,0.07408 0.15875,0.169333 0.07408,0.127 0.08467,0.243417 0.02117,0.105833 -0.03175,0.254 -0.02117,0.08467 -0.04233,0.105833 -0.01058,0.02117 -0.02117,0.03175 -0.01058,0.01058 -0.03175,0.03175 -0.01058,0.02117 -0.03175,0.105833 -0.105833,0.338667 -0.264583,0.613834 -0.15875,0.275166 -0.243417,0.582083 z"
         style="font-style:normal;font-variant:normal;font-weight:normal;font-stretch:normal;font-size:10.58333302px;font-family:Selima;-inkscape-font-specification:'Selima, Normal';font-variant-ligatures:normal;font-variant-caps:normal;font-variant-numeric:normal;font-feature-settings:normal;text-align:start;writing-mode:lr-tb;text-anchor:start;stroke:#fcffff;stroke-width:0.69745946;stroke-linejoin:round;stroke-miterlimit:4;stroke-dasharray:none;stroke-opacity:0.71356788;paint-order:markers stroke fill"
         id="path26"
         inkscape:connector-curvature="0" />
      <path
         d="m 20.868089,82.692037 q 0.02117,-0.09525 0.04233,-0.169333 0.03175,-0.07408 0.0635,-0.137584 0.0635,-0.148166 0.127,-0.28575 0.07408,-0.137583 0.137584,-0.264583 0.07408,-0.179917 0.116416,-0.359833 0.05292,-0.179917 0.07408,-0.391584 0.01058,-0.07408 -0.01058,-0.169333 -0.01058,-0.105833 -0.04233,-0.169333 -0.03175,-0.0635 -0.08467,-0.05292 -0.05292,0.01058 -0.116416,0.148167 -0.03175,0.09525 -0.07408,0.1905 -0.04233,0.09525 -0.07408,0.1905 l -0.232833,0.635 q -0.02117,0.0635 -0.05292,0.137583 -0.02117,0.0635 -0.04233,0.148167 -0.05292,0.201083 -0.127,0.381 -0.07408,0.169333 -0.148167,0.338666 -0.04233,0.116417 -0.08467,0.232834 -0.04233,0.116416 -0.09525,0.22225 -0.05292,0.127 -0.07408,0.179916 -0.02117,0.05292 -0.03175,0.09525 -0.01058,0.04233 -0.03175,0.09525 -0.01058,0.05292 -0.0635,0.1905 -0.04233,0.09525 -0.0635,0.22225 -0.02117,0.116417 0.09525,0.148167 0.04233,-0.01058 0.127,0.02117 0.09525,0.02117 0.179917,0.05292 0.09525,0.02117 0.169333,0.05292 0.08467,0.02117 0.116417,0.01058 0.116416,0 0.22225,0.04233 0.116416,0.04233 0.211666,0.01058 l 0.15875,-0.04233 q 0.127,-0.04233 0.137584,-0.04233 -0.01058,0 0.01058,-0.01058 0.01058,-0.01058 0.03175,-0.02117 0.03175,-0.02117 0.08467,-0.05292 0.04233,0 0.105833,-0.07408 0.07408,-0.08467 0.137583,-0.179916 0.07408,-0.09525 0.137584,-0.169334 0.0635,-0.07408 0.116416,-0.07408 0.169334,-0.09525 0.211667,-0.05292 0.04233,0.04233 -0.01058,0.15875 -0.05292,0.105834 -0.179917,0.254 -0.127,0.148167 -0.28575,0.275167 l -0.201083,0.127 q -0.402167,0.148167 -0.762,0.116417 -0.34925,-0.03175 -0.613834,-0.09525 -0.264583,-0.0635 -0.41275,-0.08467 -0.137583,-0.02117 -0.116416,0.137583 0.02117,0.179917 0.02117,0.359834 0,0.169333 0.01058,0.328083 0,0.04233 -0.01058,0.07408 0,0.03175 0.01058,0.0635 -0.01058,0.09525 -0.01058,0.179917 0,0.07408 0,0.179916 -0.03175,0.09525 -0.03175,0.1905 -0.02117,0.0635 -0.04233,0.116417 -0.01058,0.0635 -0.01058,0.127 -0.01058,0.04233 -0.02117,0.08467 -0.01058,0.05292 0,0.105833 -0.02117,0.04233 -0.03175,0.08467 -0.01058,0.04233 -0.02117,0.09525 0,-0.01058 -0.01058,-0.01058 0,0 0,0.01058 -0.01058,0 -0.02117,0.01058 0,0.01058 -0.01058,0.01058 -0.01058,0.01058 -0.01058,0.04233 0,0.05292 -0.01058,0.08467 0,0.04233 -0.02117,0.08467 -0.02117,0.0635 -0.04233,0.127 -0.01058,0.07408 -0.02117,0.127 -0.04233,0.116417 -0.08467,0.22225 -0.03175,0.105833 -0.08467,0.1905 v 0.07408 q 0,0.0635 -0.03175,0.105834 -0.02117,0.04233 -0.05292,0.07408 l -0.03175,0.0635 q -0.05292,0.137583 -0.105834,0.243417 -0.05292,0.105833 -0.116416,0.22225 -0.04233,0.116416 -0.148167,0.137583 -0.03175,-0.01058 -0.0635,0 -0.04233,0.01058 -0.0635,0.01058 -0.02117,0 -0.02117,0.01058 -0.01058,0.02117 -0.03175,0.01058 l -0.08467,0.02117 q -0.105834,0.04233 -0.22225,-0.05292 -0.02117,-0.02117 -0.0635,-0.0635 -0.04233,-0.03175 -0.07408,-0.0635 -0.05292,-0.05292 -0.09525,-0.148167 -0.04233,-0.08467 -0.04233,-0.1905 l -0.05292,-0.127 q -0.02117,-0.09525 -0.03175,-0.201083 -0.01058,-0.105833 -0.01058,-0.22225 0,-0.116417 0,-0.243417 -0.01058,-0.127 0.01058,-0.275166 0.01058,-0.01058 0.01058,-0.02117 -0.02117,-0.148167 0.01058,-0.28575 0.02117,-0.127 0.04233,-0.275167 0.05292,-0.201083 0.105834,-0.402166 0.04233,-0.201084 0.09525,-0.391584 0.01058,-0.05292 0.01058,-0.09525 0,-0.04233 0.02117,-0.09525 0.02117,-0.105833 0.04233,-0.15875 0,-0.05292 0.02117,-0.08467 0.01058,-0.04233 0.03175,-0.09525 0,-0.02117 0.02117,-0.08467 0.03175,-0.09525 0.05292,-0.179916 0.02117,-0.08467 0.04233,-0.169334 0.03175,-0.09525 0.05292,-0.15875 0.02117,-0.07408 0.04233,-0.137583 0.02117,-0.07408 0.0635,-0.15875 0.03175,-0.08467 0.08467,-0.22225 0.01058,-0.04233 0.03175,-0.0635 0.02117,-0.03175 0.02117,-0.07408 0.01058,-0.07408 0.127,-0.34925 0.116416,-0.28575 0.275166,-0.645584 0.15875,-0.370416 0.338667,-0.762 0.1905,-0.402166 0.359833,-0.719666 0.01058,-0.01058 -0.03175,0.03175 -0.04233,0.04233 -0.09525,0.105833 -0.04233,0.05292 -0.08467,0.09525 -0.03175,0.04233 -0.02117,0.03175 0.01058,-0.02117 0.0635,-0.09525 0.0635,-0.08467 0.127,-0.169333 0.0635,-0.09525 0.116417,-0.169334 0.05292,-0.08467 0.07408,-0.105833 0.127,-0.211667 0.1905,-0.275167 0.07408,-0.07408 0.148167,-0.09525 0.05292,-0.05292 0.15875,-0.148166 0.105833,-0.105834 0.179916,-0.15875 0.09525,-0.08467 0.264584,-0.137584 0.179916,-0.05292 0.28575,-0.01058 0.03175,0.01058 0.0635,0.02117 0.03175,0.01058 0.0635,0 0.116416,0.02117 0.201083,0.08467 0.09525,0.05292 0.179917,0.127 0,0.02117 0.02117,0.04233 0.03175,0.02117 0.05292,0.05292 0.02117,0.105834 0.07408,0.211667 0.05292,0.105833 0.02117,0.254 0.05292,0.137583 0.03175,0.243417 -0.01058,0.105833 -0.0635,0.243416 -0.116417,0.275167 -0.243417,0.518584 -0.127,0.243416 -0.306916,0.486833 -0.03175,0.08467 -0.137584,0.137583 -0.05292,0.03175 -0.116416,0.05292 -0.05292,0.02117 -0.116417,0.0635 z m -1.703917,2.592916 -0.03175,0.09525 -0.09525,0.306917 q -0.03175,0.09525 -0.03175,0.201083 -0.02117,0.08467 -0.04233,0.15875 -0.01058,0.0635 -0.02117,0.137584 -0.02117,0.0635 -0.04233,0.127 -0.01058,0.0635 -0.03175,0.127 0.02117,0.05292 0,0.08467 -0.02117,0.03175 -0.03175,0.08467 -0.01058,0.03175 -0.02117,0.0635 -0.01058,0.03175 -0.02117,0.07408 0,0.07408 -0.02117,0.127 -0.01058,0.0635 -0.03175,0.148167 -0.01058,0.04233 -0.02117,0.08467 0,0.05292 -0.02117,0.105833 -0.02117,0.05292 -0.03175,0.116417 -0.02117,0.0635 -0.02117,0.116416 0,0.08467 0,0.15875 -0.01058,0.07408 -0.01058,0.137584 0,0.02117 0.02117,0.08467 0.04233,0.08467 0.07408,0.07408 0.03175,0 0.05292,-0.04233 0.03175,-0.03175 0.04233,-0.08467 0.02117,-0.04233 0.03175,-0.0635 0.02117,-0.05292 0.03175,-0.07408 0.01058,-0.02117 0.01058,-0.04233 0,-0.01058 0.01058,-0.03175 0.01058,-0.02117 0.03175,-0.08467 0.05292,-0.211666 0.116417,-0.402166 0.03175,-0.148167 0.05292,-0.275167 0.03175,-0.1905 0.05292,-0.402167 0.03175,-0.201083 0.05292,-0.41275 0.02117,-0.127 0.03175,-0.1905 0.01058,-0.0635 0.01058,-0.116416 0.01058,-0.05292 0.01058,-0.116417 0.01058,-0.0635 0.02117,-0.1905 0.01058,-0.232833 -0.01058,-0.296333 -0.01058,-0.07408 -0.03175,-0.04233 -0.02117,0.03175 -0.05292,0.116416 -0.02117,0.07408 -0.03175,0.137583 z m 0.772584,-3.947583 -0.01058,-0.03175 q -0.01058,0.02117 -0.05292,0.08467 -0.03175,0.0635 -0.07408,0.137583 -0.04233,0.0635 -0.08467,0.116417 -0.03175,0.05292 -0.04233,0.0635 -0.01058,0.04233 -0.03175,0.09525 -0.01058,0.04233 -0.05292,0.0635 v -0.04233 q 0,-0.01058 0.01058,-0.02117 0.07408,-0.15875 0.179917,-0.306917 0.105833,-0.148166 0.201083,-0.296333 -0.02117,-0.02117 -0.02117,-0.03175 l 0.01058,-0.01058 q 0.264583,-0.34925 0.47625,-0.5715 0.02117,-0.02117 0.05292,-0.03175 0.03175,-0.02117 0.03175,-0.0635 l 0.09525,-0.105834 q -0.0635,0.05292 -0.09525,0.07408 -0.02117,0.01058 -0.0635,0.05292 -0.04233,0.03175 -0.08467,0.0635 -0.03175,0.02117 -0.0635,0.08467 -0.201084,0.22225 -0.381,0.486833 -0.179917,0.254 -0.338667,0.582084 -0.02117,0.105833 -0.05292,0.15875 -0.02117,0.04233 -0.04233,0.116416 -0.02117,0.05292 -0.02117,0.08467 0.01058,0.03175 -0.01058,0.08467 v 0.03175 q 0.05292,-0.08467 0.07408,-0.15875 0.03175,-0.07408 0.05292,-0.137584 0.02117,-0.04233 0.07408,-0.116416 0.05292,-0.08467 0.105834,-0.169334 0.05292,-0.09525 0.09525,-0.169333 0.04233,-0.08467 0.0635,-0.116417 z m -0.455084,0.635 q 0,0.01058 -0.01058,0.01058 -0.02117,0.01058 -0.02117,0.01058 -0.169333,0.306917 -0.28575,0.6985 v 0.0635 q 0.0635,-0.116417 0.105834,-0.232833 0.04233,-0.116417 0.09525,-0.22225 0.04233,-0.07408 0.0635,-0.148167 0.03175,-0.08467 0.05292,-0.179917 z m 0.03175,4.677833 h -0.01058 q 0,-0.03175 0.01058,-0.03175 z m 0,-0.03175 q 0,-0.01058 0.01058,-0.01058 -0.01058,-0.01058 -0.01058,-0.01058 z"
         style="font-style:normal;font-variant:normal;font-weight:normal;font-stretch:normal;font-size:10.58333302px;font-family:Selima;-inkscape-font-specification:'Selima, Normal';font-variant-ligatures:normal;font-variant-caps:normal;font-variant-numeric:normal;font-feature-settings:normal;text-align:start;writing-mode:lr-tb;text-anchor:start;stroke:#fcffff;stroke-width:0.69745946;stroke-linejoin:round;stroke-miterlimit:4;stroke-dasharray:none;stroke-opacity:0.71356788;paint-order:markers stroke fill"
         id="path28"
         inkscape:connector-curvature="0" />
      <path
         d="m 25.752793,83.602204 q 0.08467,0.01058 0.179917,0.105833 -0.01058,0.05292 -0.07408,0.201083 -0.05292,0.137584 -0.09525,0.169334 -0.02117,0.01058 -0.03175,0.03175 -0.01058,0.01058 -0.03175,0.02117 l -0.116417,0.137584 q -0.02117,0.02117 -0.04233,0.04233 -0.01058,0.01058 -0.02117,0.03175 -0.03175,0.07408 -0.127,0.127 -0.04233,0.02117 -0.05292,0.04233 -0.05292,0.05292 -0.105833,0.105834 -0.05292,0.04233 -0.105833,0.09525 -0.08467,0.07408 -0.201084,0.105833 -0.07408,0.02117 -0.137583,0.03175 -0.0635,0 -0.127,0.02117 -0.05292,0.02117 -0.116417,0.03175 -0.0635,0 -0.127,0.02117 h -0.09525 q -0.09525,-0.03175 -0.1905,-0.05292 -0.08467,-0.03175 -0.169333,-0.09525 l -0.05292,-0.03175 q -0.07408,-0.03175 -0.137583,-0.07408 -0.0635,-0.04233 -0.116417,-0.105833 -0.148166,0.07408 -0.22225,0.137583 l -0.116416,0.07408 q -0.02117,0.01058 -0.02117,0.01058 -0.05292,0.0635 -0.116417,0.08467 -0.05292,0.02117 -0.116416,0.04233 -0.243417,0.07408 -0.433917,-0.03175 -0.04233,-0.02117 -0.08467,-0.03175 -0.03175,-0.02117 -0.07408,-0.04233 -0.455083,-0.1905 -0.508,-0.687917 -0.03175,-0.243417 0.08467,-0.47625 0.05292,-0.105833 0.105833,-0.201083 0.0635,-0.105834 0.148167,-0.1905 0,-0.01058 0.02117,-0.03175 0.105834,-0.15875 0.22225,-0.306917 0.127,-0.148167 0.243417,-0.296333 0.179917,-0.1905 0.402167,-0.328084 0.04233,-0.02117 0.09525,-0.02117 0.05292,-0.01058 0.09525,-0.01058 0.05292,-0.01058 0.105833,-0.01058 h 0.03175 q 0.05292,0.02117 0.105833,0.03175 0.0635,0 0.116417,0.02117 0.04233,0.02117 0.0635,0.02117 0.04233,0.01058 0.0635,0.02117 0.03175,0 0.05292,0.03175 0.02117,0.01058 0.02117,0.01058 0.04233,0 0.07408,0.03175 0.03175,0.02117 0.07408,0.02117 0.03175,0 0.05292,0.02117 0.05292,0.05292 0.09525,0.09525 0.05292,0.04233 0.08467,0.09525 l 0.03175,0.08467 q 0.03175,0.137584 -0.09525,0.211667 -0.07408,0.03175 -0.137583,0.07408 -0.0635,0.04233 -0.127,0.09525 v 0.01058 q -0.08467,0.08467 -0.179917,0.169333 -0.09525,0.08467 -0.169333,0.1905 l -0.127,0.137583 q -0.07408,0.08467 -0.137583,0.169334 -0.05292,0.08467 -0.116417,0.169333 l -0.105833,0.148167 q -0.02117,0.02117 -0.04233,0.0635 -0.09525,0.179916 -0.127,0.34925 0,0 0,0.04233 l 0.04233,-0.03175 q 0.179916,-0.179917 0.34925,-0.306917 0.105833,-0.08467 0.15875,-0.179916 l 0.08467,-0.09525 q 0.05292,-0.05292 0.09525,-0.105834 0.04233,-0.0635 0.08467,-0.127 l 0.22225,-0.359833 q 0.15875,-0.02117 0.232833,0.07408 l 0.0635,0.0635 q 0.05292,0.07408 0.0635,0.148167 0.02117,0.07408 0.03175,0.15875 0,0.01058 -0.02117,0.05292 l -0.148167,0.296333 q -0.05292,0.116417 -0.03175,0.22225 0.03175,0.148167 0.09525,0.264583 0.03175,0.05292 0.09525,0.05292 0.05292,-0.01058 0.105833,-0.02117 0.0635,-0.01058 0.116417,-0.03175 0.05292,-0.02117 0.09525,-0.04233 0.05292,-0.03175 0.105833,-0.0635 l 0.232834,-0.137583 0.169333,-0.148167 q 0.105833,-0.105833 0.243417,-0.306917 0.137583,-0.211666 0.243416,-0.3175 z"
         style="font-style:normal;font-variant:normal;font-weight:normal;font-stretch:normal;font-size:10.58333302px;font-family:Selima;-inkscape-font-specification:'Selima, Normal';font-variant-ligatures:normal;font-variant-caps:normal;font-variant-numeric:normal;font-feature-settings:normal;text-align:start;writing-mode:lr-tb;text-anchor:start;stroke:#fcffff;stroke-width:0.69745946;stroke-linejoin:round;stroke-miterlimit:4;stroke-dasharray:none;stroke-opacity:0.71356788;paint-order:markers stroke fill"
         id="path30"
         inkscape:connector-curvature="0" />
    </g>
    <flowRoot
       xml:space="preserve"
       id="flowRoot14"
       style="font-style:normal;font-weight:normal;font-size:40px;line-height:1.25;font-family:sans-serif;letter-spacing:0px;word-spacing:0px;fill:#000000;fill-opacity:1;stroke:none"
       transform="scale(0.26458333)"><flowRegion
         id="flowRegion16"><rect
           id="rect18"
           width="85.862968"
           height="46.972092"
           x="15.404826"
           y="291.41669" /></flowRegion><flowPara
         id="flowPara20"></flowPara></flowRoot>  </g>
</svg>
